<svg width="26" height="26" viewBox="0 0 26 26" fill="none" xmlns="http://www.w3.org/2000/svg">
<g clip-path="url(#clip0_3_17)">
<path d="M26 13C26 5.82029 20.1797 1.84942e-07 13 1.84942e-07C5.82029 1.84942e-07 0 5.82029 0 13C0 19.4887 4.75391 24.8668 10.9687 25.8421V16.7578H7.66797V13H10.9687V10.1359C10.9687 6.87781 12.9096 5.07812 15.879 5.07812C17.3013 5.07812 18.7891 5.33203 18.7891 5.33203V8.53125H17.1498C15.5349 8.53125 15.0312 9.53334 15.0312 10.5614V13H18.6367L18.0604 16.7578H15.0312V25.8421C21.2461 24.8668 26 19.4887 26 13Z" fill="white"/>
</g>
<defs>
<clipPath id="clip0_3_17">
<rect width="26" height="26" fill="white"/>
</clipPath>
</defs>
</svg>
