<svg width="26" height="26" viewBox="0 0 26 26" fill="none" xmlns="http://www.w3.org/2000/svg">
<path d="M7.61602 0.0909192C6.2328 0.156179 5.28821 0.37692 4.46245 0.701401C3.60782 1.03446 2.88345 1.4814 2.16272 2.20473C1.442 2.92805 0.998171 3.65293 0.667448 4.50885C0.347385 5.33644 0.130542 6.2818 0.0694418 7.66579C0.00834117 9.04977 -0.00517897 9.49463 0.0015811 13.0249C0.00834116 16.5552 0.0239413 16.9977 0.091022 18.3846C0.157063 19.7675 0.377025 20.7119 0.701508 21.5379C1.03509 22.3925 1.48152 23.1166 2.2051 23.8376C2.92869 24.5586 3.65306 25.0013 4.51107 25.3326C5.33788 25.6521 6.28351 25.87 7.66724 25.9306C9.05097 25.9912 9.49636 26.0052 13.0256 25.9984C16.5549 25.9917 16.9993 25.9761 18.3858 25.9103C19.7724 25.8445 20.7118 25.623 21.5381 25.3001C22.3927 24.9657 23.1174 24.5201 23.8378 23.7962C24.5583 23.0724 25.0019 22.347 25.3323 21.4906C25.6527 20.6638 25.8703 19.7181 25.9303 18.3354C25.9909 16.9478 26.0052 16.5048 25.9985 12.975C25.9917 9.44523 25.9758 9.00271 25.9101 7.61639C25.8443 6.23006 25.6241 5.2886 25.2998 4.46205C24.9657 3.60743 24.5198 2.88385 23.7965 2.16235C23.0732 1.44084 22.3472 0.997542 21.4911 0.667861C20.6637 0.3478 19.7186 0.129659 18.3349 0.0698591C16.9512 0.0100589 16.5058 -0.00528112 12.9752 0.0014789C9.44462 0.00823892 9.00261 0.023319 7.61602 0.0909192ZM7.76786 23.5919C6.50035 23.5368 5.81212 23.3262 5.35348 23.1499C4.74611 22.9159 4.31346 22.633 3.85638 22.1803C3.3993 21.7277 3.11849 21.2935 2.88137 20.6874C2.70327 20.2288 2.48877 19.5413 2.42949 18.2738C2.36501 16.9039 2.35148 16.4926 2.34394 13.0218C2.3364 9.55105 2.34966 9.14025 2.40973 7.76979C2.46381 6.50332 2.67571 5.81432 2.85173 5.35594C3.08573 4.7478 3.36758 4.31593 3.82128 3.85911C4.27498 3.40229 4.70789 3.12097 5.31447 2.88385C5.7726 2.70497 6.46005 2.49229 7.72704 2.43197C9.09803 2.36697 9.50884 2.35397 12.9791 2.34643C16.4493 2.33889 16.8612 2.35189 18.2327 2.41221C19.4992 2.46733 20.1884 2.67715 20.6463 2.85421C21.2539 3.08821 21.6863 3.36927 22.1431 3.82375C22.6 4.27823 22.8816 4.70958 23.1187 5.31746C23.2978 5.77428 23.5105 6.46146 23.5703 7.72923C23.6356 9.10021 23.6504 9.51127 23.6566 12.9812C23.6629 16.4512 23.6506 16.8633 23.5906 18.2333C23.5352 19.5008 23.3251 20.1892 23.1486 20.6484C22.9146 21.2555 22.6325 21.6884 22.1785 22.145C21.7245 22.6015 21.2922 22.8829 20.6853 23.12C20.2277 23.2986 19.5395 23.5118 18.2735 23.5721C16.9025 23.6366 16.4917 23.6501 13.0202 23.6577C9.54862 23.6652 9.13911 23.6512 7.76812 23.5919M18.3658 6.05196C18.3663 6.36052 18.4584 6.662 18.6302 6.91827C18.8021 7.17453 19.0461 7.37407 19.3314 7.49166C19.6167 7.60924 19.9304 7.63958 20.2329 7.57884C20.5355 7.5181 20.8132 7.36901 21.031 7.15042C21.2487 6.93184 21.3968 6.65358 21.4564 6.35083C21.5161 6.04808 21.4846 5.73446 21.366 5.44961C21.2473 5.16476 21.0469 4.92149 20.79 4.75057C20.5331 4.57964 20.2313 4.48874 19.9227 4.48935C19.5091 4.49018 19.1127 4.65526 18.8207 4.94829C18.5288 5.24132 18.3651 5.63831 18.3658 6.05196ZM6.32511 13.013C6.33239 16.6998 9.32658 19.6817 13.0126 19.6747C16.6987 19.6677 19.6827 16.6738 19.6757 12.987C19.6687 9.30015 16.6737 6.31742 12.9872 6.3247C9.30058 6.33198 6.31809 9.32667 6.32511 13.013ZM8.66669 13.0083C8.66499 12.1512 8.91749 11.3129 9.39225 10.5993C9.867 9.88575 10.5427 9.32898 11.3339 8.99943C12.1251 8.66988 12.9962 8.58234 13.8371 8.74788C14.6781 8.91342 15.451 9.32461 16.0583 9.92945C16.6655 10.5343 17.0798 11.3056 17.2487 12.1459C17.4175 12.9862 17.3334 13.8576 17.007 14.6501C16.6806 15.4426 16.1265 16.1205 15.4148 16.5981C14.7031 17.0756 13.8658 17.3314 13.0087 17.3331C12.4396 17.3343 11.8759 17.2234 11.3497 17.0067C10.8234 16.79 10.3451 16.4717 9.94184 16.0701C9.53863 15.6685 9.21849 15.1914 8.9997 14.666C8.7809 14.1407 8.66775 13.5774 8.66669 13.0083Z" fill="white"/>
</svg>
