<svg width="26" height="26" viewBox="0 0 26 26" fill="none" xmlns="http://www.w3.org/2000/svg">
<path d="M22.1532 22.1537H18.3008V16.1205C18.3008 14.6819 18.2751 12.8299 16.2972 12.8299C14.2907 12.8299 13.9837 14.3973 13.9837 16.0158V22.1533H10.1313V9.74663H13.8296V11.4421H13.8814C14.2515 10.8093 14.7863 10.2887 15.4289 9.93578C16.0715 9.58286 16.7977 9.41084 17.5303 9.43803C21.4349 9.43803 22.1548 12.0064 22.1548 15.3476L22.1532 22.1537ZM5.78456 8.05072C5.3424 8.0508 4.91014 7.91976 4.54245 7.67417C4.17477 7.42858 3.88819 7.07947 3.71891 6.67098C3.54963 6.2625 3.50526 5.81299 3.59145 5.3793C3.67763 4.94561 3.89049 4.54721 4.20308 4.23449C4.51568 3.92177 4.91398 3.70877 5.34763 3.62243C5.78128 3.53609 6.23078 3.58028 6.63931 3.74942C7.04784 3.91856 7.39704 4.20505 7.64276 4.57266C7.88847 4.94027 8.01967 5.37249 8.01975 5.81466C8.0198 6.10825 7.96202 6.39898 7.84972 6.67024C7.73742 6.9415 7.57281 7.18799 7.36525 7.39563C7.1577 7.60327 6.91126 7.76799 6.64004 7.88039C6.36883 7.99279 6.07814 8.05067 5.78456 8.05072ZM7.71075 22.1537H3.85435V9.74663H7.71075V22.1537ZM24.0738 0.00177142H1.91854C1.41568 -0.00390356 0.931109 0.190302 0.571358 0.541713C0.211607 0.893123 0.00610171 1.37299 -3.54332e-05 1.87586V24.1238C0.00589167 24.6269 0.211276 25.1071 0.571015 25.4588C0.930754 25.8106 1.41543 26.0052 1.91854 25.9999H24.0738C24.5779 26.0062 25.0639 25.8121 25.4251 25.4604C25.7862 25.1086 25.993 24.6279 26 24.1238V1.87426C25.9928 1.37039 25.7859 0.889975 25.4247 0.538573C25.0635 0.187171 24.5776 -0.00647988 24.0738 0.000165557" fill="white"/>
</svg>
